<svg id="Symbol_14_1" data-name="Symbol 14 – 1" xmlns="http://www.w3.org/2000/svg" viewBox="8576 3901 634 512.02">
  <defs>
    <style>
      .cls-1, .cls-2 {
        fill: #b51a17;
      }

      .cls-2 {
        font-size: 300px;
        font-family: HelveticaNeue-CondensedBlack, Helvetica Neue;
        font-weight: 800;
      }
    </style>
  </defs>
  <g id="hiv" transform="translate(8701.004 3901.02)">
    <g id="Layer_1" data-name="Layer 1">
      <path id="Path_65" data-name="Path 65" class="cls-1" d="M78.5,512c-5.86-5-11.63-10-17.59-14.86-11.2-9.07-22.51-18-33.77-27-8.06-6.44-16.08-12.93-24.19-19.3-3.24-2.55-4.22-4.28-.87-8.21,11-13,21.36-26.54,32.11-39.77,12.31-15.15,24.89-30.09,37.16-45.28,16-19.75,31.73-39.65,47.58-59.49.1-.13.24-.24.34-.37,6.42-8,6.15-7.82,0-15.57-13.36-16.77-26.76-33.54-39.52-50.77A133.18,133.18,0,0,1,54.82,173c-2-12.35-1-25,4.58-36.82,11.84-24.92,23.37-50,35.05-75q7.46-16,15-31.91c.66-1.4,1.44-2.74,2.33-4.43-.45,10.42-1.11,20.23-1.23,30-.18,14.49,4.78,27.92,9.64,41.25,9.29,25.54,25.21,47.06,42,68.05,10.31,12.91,20.21,26.14,30.43,39.12,9.64,12.23,19.5,24.29,29.2,36.47,10,12.55,19.9,25.18,29.9,37.72,9.7,12.26,19.51,24.35,29.28,36.55,11.66,14.58,23.21,29.25,34.92,43.8,10.28,12.78,20.73,25.42,31,38.17,12.59,15.54,25.17,31.08,37.52,46.81.67.85-.3,4-1.46,5.08-6.47,5.83-13.18,11.39-19.91,16.93-8.48,7-17.08,13.81-25.58,20.75Q323.4,497,309.4,508.67a26.779,26.779,0,0,0-2.9,3.33h-3c-3.88-5-7.66-10.19-11.67-15.13-9.3-11.46-18.78-22.78-28.06-34.25-9.06-11.2-18-22.53-26.94-33.78q-13.785-17.265-27.64-34.5c-5.34-6.6-10.85-13.06-16.65-20l-3.07,3.82q-10.91,13.61-21.83,27.22-14,17.4-28.16,34.75Q126,456.72,112.63,473.37L81.5,512Z"/>
      <path id="Path_66" data-name="Path 66" class="cls-1" d="M217.5,0c5.86,1,11.77,1.8,17.58,3,12.38,2.66,24.39,6.35,33.58,15.74a34.31,34.31,0,0,1,5.82,8.42c8.16,16,16.53,32,24.08,48.35,9.84,21.29,19.36,42.75,28.26,64.45,4.83,11.76,3.89,24.31,1.37,36.63-4.57,22.3-16.2,41.06-29.68,58.87-8.77,11.58-17.57,23.14-27,35.55l-65.92-83.8C225.17,161,248,137,260.77,105.15c-4.1-.79-7.59-1.82-11.13-2.07-11.68-.84-23.38-1.6-35.08-2-8.82-.31-17.67-.31-26.48,0-11.71.42-23.4,1.19-35.09,2-3.12.22-4.71-.83-5.84-3.74-6.3-16.15-11.72-32.53-12.61-50-.52-10.25-.87-20.52-.95-30.79,0-4.24.84-8.49,1.42-13.91,8.19-1.17,16.84-2.38,25.47-3.66a7.71,7.71,0,0,0,2-1Z"/>
    </g>
  </g>
  <g id="Group_303" data-name="Group 303" transform="translate(4 -16)">
    <text id="H" class="cls-2" transform="translate(8572 4303)"><tspan x="0" y="0">H</tspan></text>
    <text id="V" class="cls-2" transform="translate(9045 4303)"><tspan x="0" y="0">V</tspan></text>
  </g>
</svg>
