<svg xmlns="http://www.w3.org/2000/svg" width="230.96" height="219.72" viewBox="0 0 230.96 219.72"><defs><style>.cls-1{fill:#fff;}</style></defs><title>orca_1</title><g id="Layer_2" data-name="Layer 2"><g id="Layer_1-2" data-name="Layer 1"><path class="cls-1" d="M201.73,162.79c-1.47.77-.9,1.49-4,1.85-13.44,1.54-46.34-2.94-88.88-40.65,0,0-62.57,6.89-67.72,54.24-2.67,24.61,12.53,14,13.44,16.47,2,5.5-3,.82-4.36-1.15-1.85-2.67-37.45-18.48-1.43-83.1,30.5-54.74,107-38,120.85-26.37,11.24,9.44,34.63,48.82,36.32,68.83C206.29,157.52,205.1,161,201.73,162.79Z"/><path d="M194.49,76.5c-21.1-23.63-29.84-25.27-29.84-25.27S152.87-3.34,138.8.16c-3.41.85,0,3.93-7.06,19.34S109,34.44,109,34.44c-1.32-1.43-69.54-3.25-97.51,54.3a88.74,88.74,0,0,0-10.67,38l0,.15h0a91.93,91.93,0,0,0,2.75,26.43c2.88,11.54,14.78,32.88,14.78,32.88S.27,205.49,0,218.43c-.14,6.47,30.37-13.58,30.37-13.58S61.15,213.23,81,219c6.7,2,2-7.21-6.88-16.31-19-19.5-30.72-17-33.82-20.5-1.82-2.07-5.79-19.82-.35-37l.22.12c9-29,43.16-44.66,38.88-37.86a152.53,152.53,0,0,1-13.27,17.66c-10.45,11.46,2.42,10,25.11-1.05,14.25-7,17.73-14,22.11-16.38,5.83-3.22,23.61,41.51,92.79,56.65a8.17,8.17,0,0,0,5.16-1.49,9.62,9.62,0,0,0,2.92-4.53S232.65,119.23,194.49,76.5Z"/><path class="cls-1" d="M135,64.5c17.89-4.21,39.24,13.12,45.76,23.14,3.67,5.63,16,21.58,10.41,34.77-5.1,12-30,5.36-47.46-12.6C104.35,69.39,132.73,65,135,64.5Z"/><path d="M85.65,198a14.93,14.93,0,0,1,2.89-5,13.21,13.21,0,0,1,4.63-3.35,16.36,16.36,0,0,1,12.37,0,13.26,13.26,0,0,1,4.6,3.35,14.92,14.92,0,0,1,2.89,5,18.68,18.68,0,0,1,1,6.22,18.05,18.05,0,0,1-1,6.09,14.53,14.53,0,0,1-2.89,4.92,13.27,13.27,0,0,1-4.6,3.29,16.63,16.63,0,0,1-12.37,0,13.22,13.22,0,0,1-4.63-3.29,14.53,14.53,0,0,1-2.89-4.92,18.05,18.05,0,0,1-1-6.09A18.68,18.68,0,0,1,85.65,198Zm6,9.88a9.88,9.88,0,0,0,1.4,3.2,7.18,7.18,0,0,0,2.51,2.28,8.7,8.7,0,0,0,7.53,0,7.19,7.19,0,0,0,2.51-2.28,9.88,9.88,0,0,0,1.4-3.2,15.2,15.2,0,0,0,.44-3.66,16.34,16.34,0,0,0-.44-3.81,10.09,10.09,0,0,0-1.4-3.29,7.12,7.12,0,0,0-2.51-2.3,8.7,8.7,0,0,0-7.53,0,7.11,7.11,0,0,0-2.51,2.3,10.09,10.09,0,0,0-1.4,3.29,16.36,16.36,0,0,0-.44,3.81A15.22,15.22,0,0,0,91.66,207.9Z"/><path d="M134.62,189.17a9.62,9.62,0,0,1,3.62.65A8.35,8.35,0,0,1,141,191.6a7.73,7.73,0,0,1,1.76,2.62,8.4,8.4,0,0,1,.61,3.2,9,9,0,0,1-1.11,4.56,7,7,0,0,1-3.62,2.93V205a5.08,5.08,0,0,1,2,1,5.7,5.7,0,0,1,1.3,1.63,7.63,7.63,0,0,1,.73,2.07A18.2,18.2,0,0,1,143,212q0,.71.08,1.67t.15,2a13.09,13.09,0,0,0,.33,1.9,4.38,4.38,0,0,0,.69,1.53h-6.57a11.58,11.58,0,0,1-.67-3.39q-.13-2-.38-3.77a6,6,0,0,0-1.42-3.43,4.9,4.9,0,0,0-3.56-1.09h-6.57v11.68h-6.57V189.17Zm-2.34,13.52a5,5,0,0,0,3.39-1,4.17,4.17,0,0,0,1.13-3.26,4,4,0,0,0-1.13-3.16,5,5,0,0,0-3.39-1h-7.2v8.41Z"/><path d="M167.9,197.14a6.62,6.62,0,0,0-1.46-1.65,6.86,6.86,0,0,0-4.31-1.51,7.67,7.67,0,0,0-3.77.86,7.11,7.11,0,0,0-2.51,2.3,10.09,10.09,0,0,0-1.4,3.29,16.36,16.36,0,0,0-.44,3.81,15.22,15.22,0,0,0,.44,3.66,9.88,9.88,0,0,0,1.4,3.2,7.18,7.18,0,0,0,2.51,2.28,7.66,7.66,0,0,0,3.77.86,6.08,6.08,0,0,0,4.71-1.84,8.51,8.51,0,0,0,2.07-4.85h6.36a15.2,15.2,0,0,1-1.3,5.06,12.14,12.14,0,0,1-2.76,3.85,11.75,11.75,0,0,1-4,2.43,14.74,14.74,0,0,1-5.06.84,15.33,15.33,0,0,1-6.17-1.19,13.22,13.22,0,0,1-4.63-3.29,14.53,14.53,0,0,1-2.89-4.92,18.05,18.05,0,0,1-1-6.09,18.68,18.68,0,0,1,1-6.22,14.93,14.93,0,0,1,2.89-5,13.21,13.21,0,0,1,4.63-3.35,16,16,0,0,1,10.84-.5,12.65,12.65,0,0,1,3.93,2.07,11.21,11.21,0,0,1,2.87,3.37,12.06,12.06,0,0,1,1.42,4.6h-6.36A5.37,5.37,0,0,0,167.9,197.14Z"/><path d="M194.64,189.17l11.18,29.88H199l-2.26-6.66H185.56l-2.34,6.66H176.6l11.3-29.88ZM195,207.5l-3.77-11h-.08l-3.89,11Z"/><path d="M231,202v4.48h-8.33v8.33h-4.48v-8.33h-8.33V202h8.33v-8.33h4.48V202Z"/></g></g></svg>