<svg xmlns="http://www.w3.org/2000/svg" viewBox="8363 9905.4 6746.066 2000">
  <defs>
    <style>
      .cls-1 {
        fill: #fff;
      }

      .cls-2 {
        fill: #f7f4f4;
      }
    </style>
  </defs>
  <g id="Seattle_skyline" transform="translate(8363 9905.4)">
    <g id="Layer_1" data-name="Layer 1">
      <path id="Path_99" data-name="Path 99" class="cls-1" d="M1,1885.277V1H6747.066V1885.277h-66.661v-97.769l-90.48-4.888V1269.6c-85.415-53.329-163.808-42.485-246.645-2.311v465.47h-95.1V1636.41H6123.033V1420.785c-60.706,16.176-69.5-46.574-102.391-60.795l-96.169,74.927a41.418,41.418,0,0,0-17.776,34.841q0,90.837,3.466,181.762c1.156,30.753-12.709,34.308-45.685,25.153V1392.254c-43.463,63.639-104.168-2.133-146.654,27.642-6.4,4.444-29.864-15.465-50.928-27.2-2.666,68.083-4.622,138.832-8.889,209.4-.622,10.221-13.243,19.643-20.265,29.42-7.91-10.132-22.22-20.087-22.664-30.575-2.312-54.928-1.066-110.035-1.066-158.208l-83.993-32.086-2.934-24.976L5400.7,1445.583v341.925c-57.951-67.9-76.527-1.155-92.614,11.821-42.574-15.821-73.149-28.353-104.613-38.219-14.843-4.711-43.374-1.422-44.44-6.933-5.333-21.42-2.133-44.441-2.133-80.526-173.5-105.591-365.124-71.994-556.839-11.377-22.131-76.438,19.375-157.853-31.553-230.024-11.021,24.264-19.82,44.44-34.752,7.821-13.866-33.864-38.93-45.951-75.016-40-17.153,2.755-35.019.444-64.616.444-6.4,62.217-15.732,121.767-17.776,181.228-3.022,85.77-.623,171.807-.978,257.755,0,14.932-2.4,29.864-3.733,44.441l-15.465,1.333a261.627,261.627,0,0,1-7.555-44.44q-.8-251.089,0-502.089c0-128.877-2.666-114.123-107.99-110.568-59.639,1.955-63.994,4.355-64.261,66.039-.533,128.877,0,257.755,0,386.543,0,15.021-1.689,30.042-2.578,44.974h-13.243v-45.329q0-297.707-.711-595.5a102.922,102.922,0,0,0-16-44.441c-15.554-28.531-33.063-55.906-50.306-84.615h-42.574c-5.51,13.421-6.933,30.664-15.732,36-38.13,23.287-51.2,57.062-51.107,99.191v597.991l-105.057,38.041V1256a306.075,306.075,0,0,1-45.329-9.688c-55.284-22.042-84.615-3.822-84.7,54.04v386.544a305.444,305.444,0,0,1-6.933,45.507l-14.754-1.778V1104.28h-114.39c0,91.192-1.511,178.384.8,265.488.8,30.22-12.8,42.752-37.508,49.862-62.927,17.776-86.748,48.085-88.881,111.9a286.558,286.558,0,0,1-3.911,29.953,21.42,21.42,0,0,1-9.6-17.332q-8.889-312.861-16.977-625.722c-.444-17.776,0-34.93,0-52.44l-22.487,18.754L3383.1,780.575l-16.621,16.443-82.748,77.238c-6.666,100.613-17.776,206.559-19.821,312.683-3.377,176.162-.889,352.5-.889,528.753v44.441h-11.643v-760.11c-28.62-4-52.262-5.155-74.838-10.755-48.618-12.088-68.883,2.133-68.883,52V1730c0,15.554-2.844,31.108-4.355,46.663l-13.6-1.244V1727.6q0-199.982-.533-399.964c0-15.554,0-36.708-8.888-45.685-60.972-59.106-124.433-115.545-197.4-182.384v554.617l-16.087,2.133c-3.822-17.776-11.021-35.552-11.021-53.329q-1.066-410.986,0-822.06c0-30.575,6.755-61.15,7.022-91.725a48.708,48.708,0,0,0-16.8-30.486,246.4,246.4,0,0,0-37.33-25.064l-124.433,29.686v880.722c-25.687,6.844-53.329,5.955-65.417,19.2-28.353,31.642-49.6,69.772-72.971,105.768-13.688,21.154-11.11,36.8,14.043,49.862,40.352,20.976,46.929,57.062,19.376,93.592-17.776,23.109-35.552,45.329-62.217,77.859V1834.17c0-251.8-2.489-503.6,1.866-755.488.978-57.684-20.8-103.458-40.263-163.008-15.288,50.307-41.063,73.86-84.259,62.217l-25.865-33.508a190.744,190.744,0,0,0-18.22,30.486c-6.311,16.8-14.221,34.664-14.31,52.084-.978,226.646-.533,453.293-.711,679.851,0,16.8-1.511,33.6-2.489,53.329l-47.285-11.2-18.043-157.408c20.976-12.088,62.217-28.264,24.353-48.8-34.93-19.021-34.841-42.752-39.107-69.86-6.933-43.818-10.133-88.259-16.976-132.077-48.885-311.083-53.329-621.634,0-933.25,8-46.4,25.064-63.994,69.683-60.795-28.176-48.44,6.933-50.307,38.752-54.484l3.289-13.332-139.9-76.882c-7.2-16.8-20.62-29.064-31.2-43.374s-21.065-28.264-23.82-43.818c-4-22.842-1.066-46.929-1.066-70.483l-12.71-3.022c29.153,74.3-31.2,114.123-55.106,159.986l-139.1,79.371,3.2,12.621c37.241.8,62.217,11.2,48.973,40.174,20.531,18.576,47.907,31.2,50.573,47.818,31.642,192.961,60.172,387.166,44.44,583.148-14.132,179.9-37.419,359.079-58.395,538.441-1.422,12.266-15.643,25.953-27.375,33.33-25.065,15.643-26.664,29.153-2.222,45.6,6.311,4.266,12.354,8.888,27.375,20.087H1950.6c1.955-305.217,15.821-610.257-27.82-914.23l-4.889,92.614-208.781-33.242c-5.066,71.9-13.332,138.3-13.865,204.426-1.689,226.647,0,453.293-1.422,679.851,0,30.4-11.2,60.617-17.776,93.058-9.777-4.888-12.266-5.6-12.266-6.222.889-91.992,5.955-184.161.889-275.531-1.689-30.131,23.642-88.081-48.973-84.526l11.732-31.642-92.614-4.711c0-60.35,2.044-116.612-.533-172.7-2.755-59.461,19.821-124.433-27.464-175.629-23.287-25.064-27.553-79.993-79.993-63.817-17.776,5.511-33.864,26.664-44.441,44.441-16.8,29.153-43.641,51.551-42.929,92.347,2.666,173.229,1.244,346.636.978,519.865,0,14.221-1.955,28.531-3.022,42.752l-11.821-1.156V959.048l-62.217-6.844c-15.732-32.886-50.929-36.619-73.149-7.644a49.24,49.24,0,0,1-27.82,13.6,198.561,198.561,0,0,1-33.864,2.489c-11.377,52,29.064,104.524-28.62,141.587-4.266,2.755-9.955,10.844-8.888,13.51,16.532,34.4-26.664,20.087-30.22,37.952-46.218-10.132-46.129,20.887-46.04,51.818v75.549c0,54.84.8,109.59-.8,164.43,0,10.044-10.31,19.82-15.91,29.775a138.029,138.029,0,0,1-19.465-31.108,124.429,124.429,0,0,1-.711-35.552V871.323c-21.509-6.933-42.663-18.843-63.905-19.2-24.531,0-49.151,13.6-73.949,14.4-69.149,2.222-63.55.533-60.972,68.083,4.533,116.612,1.244,233.49,1.244,354.369L653.92,1256l10.932-161.763c-50.84-68.616-103.369-17.154-159.364-7.288,8.888,95.369,31.286,192.872-25.687,287.974l-19.376-67.372H394.387l-41.863,173.407A33.147,33.147,0,0,1,341.5,1483c-39.019,0-87.548-24.887-100.169,40.441,0,1.867-4.533,3.466-7.11,4.177-35.552,10.4-71.816,20.62-99.28,28.442,0,27.2-.533,48.085,0,68.883,0,10.843,5.688,21.865,4.355,32.264-2.222,17.776-12.621,36.441-10.755,53.329,2.489,23.2-4,39.819-26.664,41.33-15.554.978-31.286,0-52.084,0v129.411Z" transform="translate(-1 -1)"/>
      <path id="Path_100" data-name="Path 100" class="cls-2" d="M1,1849.859l49.151-2.933V1717.515c20.8,0,36.53.8,52.084,0,22.576-1.511,29.064-17.776,26.664-41.33-1.867-17.332,8.888-35.552,10.755-53.329,1.244-10.4-4-21.42-4.355-32.264-.8-20.8,0-41.6,0-68.883,27.375-7.822,63.372-17.776,99.28-28.442,2.666-.8,6.755-2.4,7.11-4.177,12.71-65.328,61.15-40.8,100.169-40.441a33.163,33.163,0,0,0,11.021-2.044l41.507-174.473h66.039L479.8,1339.06c56.884-95.1,34.575-192.605,25.687-287.974,55.995-9.866,108.524-61.328,159.364,7.288L653.92,1220.137,782,1253.112c0-120.878,3.289-237.757-1.244-354.368-2.578-67.461-8.177-65.861,60.972-68.083,24.8-.8,49.329-14.754,73.949-14.4,21.331,0,42.485,12.266,63.905,19.2v537.285a124.433,124.433,0,0,0,.711,35.552,138.036,138.036,0,0,0,19.465,31.108c5.511-9.955,15.554-19.732,15.91-29.775,1.6-54.751.8-109.59.8-164.43v-75.549c0-31.019,0-62.217,46.04-51.818,3.111-17.776,46.751-3.555,30.219-37.952-1.244-2.578,4.444-10.755,8.888-13.51,57.684-37.063,17.154-89.681,28.62-141.587A198.56,198.56,0,0,0,1164.1,922.3a49.24,49.24,0,0,0,27.82-13.6c22.221-28.975,57.328-25.242,73.149,7.644l62.217,6.844v648.831l11.821,1.155c1.067-14.221,3.022-28.531,3.022-42.752,0-173.318,1.689-346.636-.978-519.865-.622-40.8,26.131-63.194,42.929-92.347,10.221-17.776,26.664-38.574,44.441-44.44,52.529-16.176,56.795,38.752,79.993,63.817,47.374,51.018,24.709,116.167,27.464,175.629,2.667,56.084.533,112.345.533,172.7l92.614,4.711-11.732,31.642c72.616-3.644,47.285,54.4,48.973,84.526,5.066,91.636,0,183.806-.889,275.531,0,.622,2.489,1.333,12.266,6.222,6.4-32.353,17.776-62.217,17.776-93.058,1.422-226.646,0-453.293,1.422-679.851.533-66.394,8.888-132.788,13.865-204.426l208.781,33.242,4.889-92.614c43.641,303.973,29.775,609.012,27.82,914.23h80.526c-15.021-11.11-21.065-15.821-27.375-20.087-24.176-16.532-22.843-29.953,2.222-45.6,11.821-7.377,25.953-21.154,27.375-33.33,20.976-179.273,44.44-358.546,58.395-538.441,15.376-195.983-13.154-390.188-44.44-583.148-2.755-16.621-30.131-29.153-50.573-47.818,12.888-28.975-11.732-39.463-48.973-40.174l-3.2-12.621,139.1-79.371c23.909-45.6,84.259-85.415,55.106-159.986l12.71,3.022c0,23.553-3.022,47.64,1.067,70.483,2.755,15.554,13.954,30.4,23.82,43.818s24,26.664,31.2,43.374l139.9,76.882-3.289,13.332c-31.819,4.177-66.927,6.044-38.752,54.484-44.44-3.2-61.772,14.4-69.683,60.795-53.329,311.083-49.24,622.167,0,933.25,6.933,43.818,10.043,88.259,16.976,132.077,4.266,26.664,4.089,50.84,39.107,69.861,37.775,20.531-3.466,36.619-24.353,48.8l18.31,157.764,47.285,11.2c.978-19.732,2.489-36.53,2.489-53.329q0-339.97.711-679.851c0-17.776,8-35.552,14.31-52.084a190.741,190.741,0,0,1,18.22-30.486l25.864,33.508c43.2,11.643,68.972-11.91,84.259-62.217,19.465,59.55,41.241,105.324,40.263,163.008-4.355,251.711-1.866,503.6-1.866,755.488v56.173c25.865-32.531,44.44-54.751,62.217-77.86,27.464-36.53,20.976-72.616-19.376-93.592-25.064-13.066-27.731-28.709-14.043-49.862,23.376-36,44.44-74.127,72.971-105.768,11.91-13.332,39.73-12.354,65.416-19.2V628.012l124.434-29.686a246.39,246.39,0,0,1,37.33,25.064,48.707,48.707,0,0,1,16.532,30.4c0,30.575-6.933,61.15-7.021,91.725q-.978,410.986,0,822.06c0,17.776,7.2,35.552,11.021,53.329l16.087-2.133V1064.062c72.883,66.75,136.433,123.278,197.4,182.384,8.888,8.888,8.888,30.13,8.888,45.685.711,133.321.444,266.643.533,399.964v47.818l13.6,1.244c1.511-15.554,4.267-31.108,4.355-46.662V1005.757c0-49.862,20.265-64.083,68.883-52,22.576,5.6,46.218,6.844,74.838,10.755V1724h11.644v-44.441c0-176.251-2.489-352.591.889-528.753,2.044-106.124,13.155-212.07,19.821-312.683l82.748-77.238,16.621-16.443,51.284,104.168,22.487-18.754V882.3q8.266,312.861,16.976,625.722a21.419,21.419,0,0,0,9.6,17.332,286.484,286.484,0,0,0,3.911-29.953c1.778-63.817,25.6-93.858,88.881-111.9,24.709-7.021,38.308-19.643,37.508-49.862-2.311-87.1-.8-174.384-.8-265.488h113.323v625.811l14.754,1.778a305.478,305.478,0,0,0,6.933-45.507c.533-128.877,0-257.755,0-386.543,0-57.861,29.331-76.082,84.7-54.04a306.043,306.043,0,0,0,45.33,9.688v471.069l105.057-38.041V1054.374c0-42.129,12.976-75.9,51.106-99.191,8.888-5.333,10.221-22.576,15.732-36h42.574c17.243,28.709,34.752,56.084,50.307,84.615a102.934,102.934,0,0,1,16,44.44c1.067,198.471.711,396.943.711,595.5v45.329h13.243c.889-15.021,2.578-30.042,2.578-44.974V1257.556c0-61.594,4.622-63.994,64.261-66.039,105.324-3.466,108.168-18.309,107.99,110.568v502.089a261.722,261.722,0,0,0,7.554,44.441l15.644-1.333c1.333-14.932,3.645-29.864,3.733-44.44,0-85.948-2.044-171.9.978-257.755,2.044-59.461,11.376-118.745,17.776-181.228,29.508,0,47.462,2.311,64.616-.444,36.085-5.866,61.15,6.133,75.016,40,14.932,36.619,23.731,16.532,34.752-7.822,50.929,72.171,9.421,153.586,31.553,230.024C4792.484,1565,4984.2,1531.4,5157.7,1636.989c0,35.552-3.111,59.106,2.133,80.526,1.333,5.51,29.953,2.222,44.44,6.933,31.375,9.955,62.216,22.487,104.613,38.219,16.087-12.888,34.663-79.993,92.613-11.821v-340.5l126.389-59.906,2.933,24.975,83.993,32.086c0,48.085-1.244,103.191,1.066,158.208,0,10.488,14.754,20.354,22.665,30.575,7.021-9.777,19.643-19.2,20.265-29.42,4.443-70.572,6.4-141.321,8.888-209.4,21.065,11.732,44.441,31.731,50.929,27.2,42.486-29.686,103.191,36,146.653-27.642v284.419c32.976,8.888,46.93,5.688,45.686-25.153q-3.556-90.836-3.467-181.762a41.421,41.421,0,0,1,17.777-34.841l96.168-74.927c32.8,14.221,41.686,76.971,102.392,60.795v215.447h125.144v96.169h95.1V1231.87c82.837-40.174,161.23-51.2,246.645,2.311v513.2l90.481,4.888v97.769h65.861v115.545H1Zm2092.881-366.012V1257.912l-13.865-.444-29.509,226.38Zm-6.489,206.026,9.866-2.667V1562.774c-62.217-7.2-66.127-4-48.351,46.929a774.121,774.121,0,0,0,38.485,80.171Zm170.474-26.664c2.933-94.747-2.666-105.946-51.551-97.769l9.688,97.769Zm-24.442-213.314c-1.333-83.9-1.511-84.437-35.552-83.815v83.815Zm-151.1-211.537c29.242-19.376,34.663-84.259,20.176-182.65Zm100.346-764.376h3.111L2197.6,324.928l-14.843-.622Z" transform="translate(-1 34.418)"/>
      <path id="Path_101" data-name="Path 101" class="cls-1" d="M274.964,372.73H231.59L261.1,146.35l13.865.445Z" transform="translate(1817.917 1145.535)"/>
      <path id="Path_102" data-name="Path 102" class="cls-1" d="M278.047,310.584a774.049,774.049,0,0,1-38.485-80.437c-17.776-50.929-13.777-54.128,48.351-46.929V307.651Z" transform="translate(1808.345 1413.707)"/>
      <path id="Path_103" data-name="Path 103" class="cls-1" d="M300.661,280.584H258.8l-9.688-97.769C297.995,174.726,303.683,185.837,300.661,280.584Z" transform="translate(1956.116 1416.243)"/>
      <path id="Path_104" data-name="Path 104" class="cls-1" d="M283.722,242.533H248.17V158.719C282.211,157.741,282.211,158.274,283.722,242.533Z" transform="translate(1948.701 1241.779)"/>
      <path id="Path_105" data-name="Path 105" class="cls-1" d="M235.21,306.26,255.386,123.61C269.874,222.09,264.452,287.062,235.21,306.26Z" transform="translate(1846.472 966.16)"/>
      <path id="Path_106" data-name="Path 106" class="cls-1" d="M246.5,190.867V41.28l14.843.622L249.522,190.956Z" transform="translate(1935.528 316.733)"/>
    </g>
  </g>
</svg>
